<?xml version="1.0" encoding="iso-8859-1"?>
<!-- Generator: Adobe Illustrator 18.0.0, SVG Export Plug-In . SVG Version: 6.00 Build 0)  -->
<!DOCTYPE svg PUBLIC "-//W3C//DTD SVG 1.1//EN" "http://www.w3.org/Graphics/SVG/1.1/DTD/svg11.dtd">
<svg version="1.1" id="Capa_1" xmlns="http://www.w3.org/2000/svg" xmlns:xlink="http://www.w3.org/1999/xlink" x="0px" y="0px"
	 viewBox="0 0 459.806 459.806" style="enable-background:new 0 0 459.806 459.806;" xml:space="preserve">
<path d="M436.342,53.902h-10.317V6c0-3.313-2.686-6-6-6h-55.533c-3.313,0-6,2.687-6,6v47.907H339.69
	c-1.873-1.662-3.969-3.132-6.274-4.363c-4.648-2.465-9.857-3.769-15.062-3.769c-7.964,0-15.522,3.011-21.309,8.132H162.372
	c-5.787-5.12-13.345-8.132-21.309-8.132c-5.205,0-10.413,1.304-15.077,3.777c-2.3,1.229-4.393,2.696-6.262,4.354h-18.411V6
	c0-3.313-2.687-6-6-6H39.78c-3.314,0-6,2.687-6,6v47.902H23.464c-3.313,0-6,2.687-6,6s2.687,6,6,6H33.78v47.902c0,3.313,2.686,6,6,6
	h55.533c3.313,0,6-2.687,6-6V65.907h9.969c-3.022,7.537-3.166,16.198,0.191,24.271l50.386,121.171
	c2.027,4.875,3.059,10.024,3.065,15.3l0.106,205.567c0,15.213,12.376,27.589,27.589,27.589s27.589-12.376,27.589-27.589v-71.459
	c0-5.346,4.349-9.694,9.694-9.694c5.346,0,9.694,4.349,9.694,9.694v71.459c0,15.213,12.376,27.589,27.588,27.589
	s27.589-12.376,27.589-27.596l-0.244-205.481c-0.016-5.337,1.016-10.543,3.065-15.472l50.348-121.078
	c3.357-8.073,3.213-16.734,0.189-24.271h10.36v47.897c0,3.313,2.687,6,6,6h55.533c3.314,0,6-2.687,6-6V65.902h10.317
	c3.313,0,6-2.687,6-6S439.656,53.902,436.342,53.902z M45.78,12h15.767v95.805H45.78V12z M89.313,107.805H73.547V12h15.766V107.805z
	 M229.903,104.636c28.104,0,50.969,22.864,50.969,50.969s-22.865,50.97-50.969,50.97s-50.969-22.865-50.969-50.97
	S201.798,104.636,229.903,104.636z M269.204,106.459c-10.781-8.639-24.444-13.824-39.302-13.824
	c-14.987,0-28.761,5.271-39.585,14.046l-19.387-40.775h117.555L269.204,106.459z M336.864,85.571l-50.349,121.078
	c-2.664,6.408-4.004,13.175-3.984,20.104l0.244,205.464c0,8.596-6.993,15.589-15.589,15.589c-8.595,0-15.588-6.993-15.588-15.589
	v-71.459c0-11.962-9.732-21.694-21.694-21.694c-11.962,0-21.694,9.732-21.694,21.694v71.459c0,8.596-6.993,15.589-15.589,15.589
	s-15.589-6.993-15.589-15.592l-0.106-205.575c-0.009-6.865-1.35-13.56-3.985-19.896L122.553,85.571
	c-3.992-9.601-0.085-20.535,9.071-25.426c2.965-1.573,6.141-2.37,9.438-2.37c7.723,0,14.852,4.497,18.162,11.456l22.062,46.399
	c-8.963,10.881-14.353,24.809-14.353,39.974c0,34.722,28.248,62.97,62.969,62.97s62.969-28.248,62.969-62.97
	c0-15.302-5.492-29.343-14.602-40.267l21.922-46.105c3.31-6.96,10.439-11.457,18.162-11.457c3.298,0,6.474,0.797,9.423,2.361
	C336.949,65.036,340.855,75.971,336.864,85.571z M370.492,12h15.767v95.805h-15.767V12z M414.025,107.805h-15.766V12h15.766V107.805
	z"/>
<g>
</g>
<g>
</g>
<g>
</g>
<g>
</g>
<g>
</g>
<g>
</g>
<g>
</g>
<g>
</g>
<g>
</g>
<g>
</g>
<g>
</g>
<g>
</g>
<g>
</g>
<g>
</g>
<g>
</g>
</svg>
